<?xml version="1.0" encoding="UTF-8" standalone="no"?>
<!-- Created with Inkscape (http://www.inkscape.org/) -->

<svg
   width="3in"
   height="2in"
   viewBox="0 0 76.200001 50.8"
   version="1.1"
   id="svg1"
   sodipodi:docname="ButtonElliptcal.svg"
   inkscape:version="1.4 (86a8ad7, 2024-10-11)"
   inkscape:export-filename="ButtonElliptcal.png"
   inkscape:export-xdpi="600"
   inkscape:export-ydpi="600"
   xmlns:inkscape="http://www.inkscape.org/namespaces/inkscape"
   xmlns:sodipodi="http://sodipodi.sourceforge.net/DTD/sodipodi-0.dtd"
   xmlns="http://www.w3.org/2000/svg"
   xmlns:svg="http://www.w3.org/2000/svg">
  <sodipodi:namedview
     id="namedview1"
     pagecolor="#ffffff"
     bordercolor="#999999"
     borderopacity="1"
     inkscape:showpageshadow="2"
     inkscape:pageopacity="0"
     inkscape:pagecheckerboard="0"
     inkscape:deskcolor="#d1d1d1"
     inkscape:document-units="in"
     inkscape:zoom="3.9458701"
     inkscape:cx="136.34509"
     inkscape:cy="82.744741"
     inkscape:window-width="1920"
     inkscape:window-height="1001"
     inkscape:window-x="-9"
     inkscape:window-y="-9"
     inkscape:window-maximized="1"
     inkscape:current-layer="layer1" />
  <defs
     id="defs1">
    <inkscape:path-effect
       effect="skeletal"
       id="path-effect2"
       is_visible="true"
       lpeversion="1"
       pattern="M 0,0 H 1"
       copytype="single_stretched"
       prop_scale="1"
       scale_y_rel="false"
       spacing="0"
       normal_offset="0"
       tang_offset="0"
       prop_units="false"
       vertical_pattern="false"
       hide_knot="false"
       fuse_tolerance="0" />
    <inkscape:path-effect
       effect="skeletal"
       id="path-effect4"
       is_visible="true"
       lpeversion="1"
       pattern="M 2.7976915,3.2550973 1.729162,2.5041628 0.67561691,3.275979 1.0596043,2.0276958 -1.9665746e-8,1.2642192 1.3058467,1.2436721 1.7045203,1.2981656e-6 2.1275905,1.2355859 3.4335887,1.230432 2.3892137,2.0146124 Z"
       copytype="repeated_stretched"
       prop_scale="1"
       scale_y_rel="false"
       spacing="2.4"
       normal_offset="0"
       tang_offset="0"
       prop_units="false"
       vertical_pattern="false"
       hide_knot="false"
       fuse_tolerance="0" />
    <inkscape:path-effect
       effect="skeletal"
       id="path-effect3"
       is_visible="true"
       lpeversion="1"
       pattern="#path2-5"
       copytype="repeated_stretched"
       prop_scale="1"
       scale_y_rel="false"
       spacing="1.6"
       normal_offset="0.5"
       tang_offset="0"
       prop_units="false"
       vertical_pattern="false"
       hide_knot="false"
       fuse_tolerance="0" />
    <inkscape:path-effect
       effect="skeletal"
       id="path-effect3-7"
       is_visible="true"
       lpeversion="1"
       pattern="#path2-5"
       copytype="repeated_stretched"
       prop_scale="1"
       scale_y_rel="false"
       spacing="1.6"
       normal_offset="0.5"
       tang_offset="0"
       prop_units="false"
       vertical_pattern="false"
       hide_knot="false"
       fuse_tolerance="0" />
    <inkscape:path-effect
       effect="skeletal"
       id="path-effect3-5"
       is_visible="true"
       lpeversion="1"
       pattern="M 2.8811513,3.0151491 1.895177,2.3164549 0.92302935,3.0345782 1.2773496,1.8731342 0.29961093,1.1627704 1.5045672,1.1436527 1.8724391,-0.01349957 2.2628227,1.1361291 3.4679187,1.1313338 2.5042328,1.860961 Z"
       copytype="repeated_stretched"
       prop_scale="1"
       scale_y_rel="false"
       spacing="2"
       normal_offset="0.5"
       tang_offset="0"
       prop_units="false"
       vertical_pattern="false"
       hide_knot="false"
       fuse_tolerance="0" />
  </defs>
  <g
     inkscape:label="Layer 1"
     inkscape:groupmode="layer"
     id="layer1">
    <rect
       style="fill:#0a3161;stroke:none;stroke-width:0.37433;fill-opacity:1"
       id="rect2"
       width="76.199997"
       height="50.799999"
       x="0"
       y="0"
       inkscape:label="Background" />
    <ellipse
       style="fill:none;stroke:#000000;stroke-width:0.321819"
       id="path1"
       cx="38.100002"
       cy="25.4"
       rx="34.764091"
       ry="22.064091"
       inkscape:label="BorderEllipse" />
    <path
       id="path1-8"
       style="display:none;fill:#ffffff;stroke:#ffffff;stroke-width:0.084"
       inkscape:label="InnerEllipsePath1"
       d="m 66.657834,28.231065 c 0.425842,-0.25742 0.840946,-0.551696 1.238355,-0.885674 -0.241326,-0.459658 -0.514022,-0.883888 -0.815962,-1.265546 0.522104,0.173023 1.038388,0.370488 1.548002,0.59121 0.377406,-0.380928 0.733243,-0.803646 1.060616,-1.271055 0.0089,0.576031 -0.02908,1.151034 -0.109519,1.720796 0.497807,0.255845 0.987995,0.534943 1.469658,0.836015 -0.559341,0.102138 -1.118764,0.178687 -1.676955,0.230811 -0.138553,0.55967 -0.316674,1.11056 -0.529908,1.648607 -0.14031,-0.55484 -0.315168,-1.085486 -0.522395,-1.584856 -0.556497,0.01581 -1.110868,0.0087 -1.661892,-0.02031 z m -2.613734,4.38432 c 0.510294,-0.08845 1.022601,-0.203881 1.535987,-0.350153 -0.0049,-0.287039 -0.01899,-0.570944 -0.04259,-0.851234 -0.02228,-0.240533 -0.05168,-0.477832 -0.08799,-0.71118 0.380032,0.404385 0.747806,0.823177 1.102472,1.255192 0.515213,-0.178329 1.032685,-0.393058 1.545521,-0.64709 -0.240203,0.456091 -0.505183,0.899549 -0.791876,1.327383 -0.03468,0.05175 -0.06964,0.10329 -0.104881,0.154626 0.332904,0.452047 0.653217,0.915679 0.961206,1.39011 -0.545329,-0.156901 -1.082131,-0.329477 -1.610501,-0.516802 -0.360762,0.449421 -0.743272,0.880987 -1.144406,1.295352 0.08179,-0.564505 0.13563,-1.122858 0.159161,-1.671928 -0.515536,-0.211369 -1.022873,-0.436416 -1.522099,-0.674276 z m -4.222032,3.503244 c 0.53541,0.03816 1.078042,0.06117 1.626964,0.06519 0.162395,-0.52453 0.302392,-1.046846 0.417585,-1.563821 0.21881,0.511677 0.427445,1.029947 0.62615,1.554078 0.556848,-0.01483 1.119674,-0.05104 1.687588,-0.112475 -0.428419,0.386235 -0.872886,0.756341 -1.330255,1.110866 0.17979,0.53358 0.349424,1.07268 0.509167,1.616515 -0.471758,-0.315114 -0.93529,-0.639006 -1.390689,-0.970752 -0.476052,0.32964 -0.962677,0.643811 -1.456752,0.943168 0.222798,-0.526193 0.427087,-1.055049 0.610503,-1.58344 -0.441256,-0.346395 -0.874646,-0.699794 -1.300261,-1.059332 z m -5.07117,2.624147 c 0.52678,0.131884 1.061002,0.251365 1.602753,0.357592 0.266976,-0.483573 0.518364,-0.969788 0.753454,-1.458183 0.09998,0.547375 0.192329,1.097047 0.277154,1.648883 0.550215,0.09573 1.108178,0.17777 1.673987,0.24527 -0.503073,0.279437 -1.012967,0.545965 -1.529087,0.799919 0.06862,0.555502 0.129497,1.113109 0.182747,1.672683 -0.395876,-0.399911 -0.78479,-0.804571 -1.166828,-1.213802 -0.52632,0.232222 -1.058203,0.451955 -1.595066,0.659556 0.310255,-0.477459 0.606051,-0.958142 0.886685,-1.441586 -0.368542,-0.419226 -0.730448,-0.842726 -1.085799,-1.270332 z m -5.51816,1.744576 c 0.507438,0.211827 1.022528,0.414021 1.545357,0.605732 0.344793,-0.436377 0.676555,-0.876479 0.994574,-1.319846 0.0066,0.557095 0.0064,1.115462 -4.4e-4,1.67497 0.530482,0.18445 1.068891,0.357979 1.615321,0.51974 -0.542982,0.190792 -1.090664,0.369907 -1.64245,0.537682 -0.02199,0.560783 -0.05078,1.122617 -0.08629,1.685362 -0.326942,-0.459368 -0.647476,-0.922112 -0.961687,-1.38805 -0.558355,0.147238 -1.120181,0.283269 -1.684894,0.408448 0.380328,-0.427529 0.748738,-0.859395 1.104527,-1.295132 -0.300739,-0.473412 -0.595386,-0.949771 -0.884022,-1.428906 z m -5.797577,0.961582 c 0.481076,0.275844 0.970014,0.544824 1.466899,0.806092 0.405247,-0.388122 0.800018,-0.781052 1.183602,-1.178329 -0.07385,0.555708 -0.153561,1.111665 -0.239017,1.667738 0.503919,0.257167 1.01594,0.506182 1.53616,0.746202 -0.567833,0.11121 -1.138245,0.211977 -1.710638,0.302637 -0.09945,0.555113 -0.204782,1.110222 -0.315894,1.665189 -0.261708,-0.502118 -0.517561,-1.006236 -0.767644,-1.512175 -0.575436,0.07149 -1.152251,0.133052 -1.729859,0.185045 0.433056,-0.376337 0.856735,-0.758123 1.270335,-1.144891 -0.236835,-0.510941 -0.468123,-1.0235 -0.693944,-1.537508 z m -5.916955,0.272925 c 0.1925,0.141331 0.386451,0.281582 0.581796,0.420716 0.2593,0.182655 0.521238,0.363859 0.785829,0.543456 0.448336,-0.338807 0.888752,-0.683505 1.320537,-1.033633 -0.141262,0.543216 -0.287488,1.085657 -0.438577,1.62719 0.470523,0.31388 0.949326,0.62238 1.436503,0.924656 -0.577626,0.04069 -1.155708,0.07217 -1.733649,0.09478 -0.163769,0.538493 -0.332498,1.075929 -0.506078,1.612168 -0.200172,-0.528161 -0.395043,-1.056948 -0.584697,-1.586179 -0.09331,8.04e-4 -0.186599,0.0014 -0.279868,0.0017 -0.484048,0.0019 -0.968757,-0.0023 -1.453787,-0.01269 0.471084,-0.325217 0.933646,-0.655759 1.387795,-0.990792 -0.176863,-0.532554 -0.348836,-1.066406 -0.515804,-1.601408 z M 31.61224,41.317192 c 0.405288,0.377146 0.821016,0.749473 1.24646,1.116528 0.483443,-0.286363 0.958742,-0.579557 1.425995,-0.878741 -0.200125,0.524394 -0.405295,1.047794 -0.615582,1.570048 0.433091,0.365342 0.875504,0.725232 1.326523,1.079213 -0.578599,-0.02303 -1.157304,-0.05528 -1.735551,-0.09714 -0.223132,0.518182 -0.451601,1.035046 -0.685486,1.550431 -0.1408,-0.548593 -0.275771,-1.097707 -0.404788,-1.647185 -0.576724,-0.06069 -1.152407,-0.131217 -1.726473,-0.211935 0.507099,-0.267855 1.005801,-0.543806 1.496211,-0.827018 -0.114983,-0.551227 -0.224124,-1.102677 -0.327309,-1.654204 z m -5.755368,-1.107421 c 0.345163,0.424637 0.703343,0.845489 1.073818,1.262101 0.512557,-0.221542 1.017124,-0.452687 1.513801,-0.692595 -0.262619,0.495001 -0.530809,0.987758 -0.804644,1.478122 0.380778,0.415615 0.773443,0.826843 1.177279,1.233225 -0.570965,-0.09381 -1.139994,-0.198208 -1.706522,-0.31357 -0.286951,0.483925 -0.579778,0.965236 -0.878558,1.443773 -0.06898,-0.560882 -0.13114,-1.121181 -0.186356,-1.680742 -0.561565,-0.135729 -1.120018,-0.282599 -1.67478,-0.440978 0.536601,-0.194368 1.064926,-0.399603 1.585083,-0.614871 -0.03987,-0.559055 -0.07295,-1.117259 -0.09912,-1.674465 z m -5.444484,-1.910014 c 0.267645,0.471407 0.550887,0.940061 0.849002,1.405509 0.534965,-0.140669 1.062095,-0.293713 1.58149,-0.458291 -0.329344,0.449036 -0.664788,0.894581 -1.006404,1.336484 0.311089,0.464966 0.63663,0.926607 0.975908,1.384466 -0.548557,-0.174117 -1.093135,-0.360174 -1.633168,-0.558561 -0.354805,0.433045 -0.716023,0.862179 -1.083732,1.287244 0.0162,-0.562483 0.04022,-1.123281 0.07217,-1.682238 -0.531524,-0.220113 -1.057863,-0.452679 -1.578439,-0.698069 0.559587,-0.104758 1.111021,-0.223154 1.654409,-0.354353 0.04847,-0.556038 0.104688,-1.11015 0.168764,-1.662191 z M 15.462021,35.50073 c 0.162649,0.5098 0.347674,1.022324 0.552594,1.534462 0.27531,-0.02229 0.548604,-0.04857 0.819774,-0.07833 0.270475,-0.02926 0.539057,-0.06217 0.805759,-0.09863 -0.400303,0.386502 -0.807234,0.768264 -1.220864,1.145137 0.224024,0.513391 0.465066,1.024521 0.722409,1.532933 -0.470086,-0.242629 -0.935084,-0.496499 -1.394555,-0.76191 -0.04035,-0.02331 -0.08067,-0.04672 -0.12093,-0.07023 -0.42688,0.365414 -0.861445,0.725214 -1.303785,1.078576 0.115062,-0.553963 0.239908,-1.104787 0.374843,-1.651595 -0.484954,-0.315986 -0.960578,-0.647369 -1.423764,-0.994875 0.572647,0.01045 1.13843,-0.0011 1.696528,-0.03072 0.153981,-0.53969 0.317884,-1.074905 0.491991,-1.604824 z m -3.971779,-3.684512 c -0.0083,0.515066 0.01546,1.041389 0.06886,1.575856 0.530516,0.09094 1.058001,0.154148 1.581592,0.193484 -0.476373,0.285817 -0.960445,0.561218 -1.452304,0.825436 0.08323,0.544736 0.19444,1.095963 0.331205,1.650561 C 11.579572,35.688591 11.154582,35.29855 10.747707,34.890599 10.242865,35.134262 9.7299819,35.365787 9.2089685,35.584347 9.4623143,35.078061 9.7280847,34.58129 10.006585,34.094911 9.628799,33.65989 9.2714802,33.206913 8.9377357,32.735254 c 0.5406291,0.185071 1.0792243,0.336201 1.6149633,0.457225 0.299981,-0.469693 0.612402,-0.928721 0.937543,-1.376261 z M 9.2804501,27.303664 C 9.0494448,27.73479 8.848982,28.201676 8.6810888,28.697082 9.1283986,28.973945 9.5864208,29.212125 10.048304,29.414557 9.50335,29.51644 8.9526598,29.59963 8.3973122,29.663149 8.2647396,30.190428 8.1657641,30.742057 8.102473,31.310854 7.8177138,30.808065 7.563059,30.287529 7.3431918,29.753049 c -0.561323,0.03136 -1.1266199,0.04168 -1.6947271,0.02991 0.4318933,-0.37267 0.8749311,-0.72526 1.3281076,-1.056333 -0.1678608,-0.55221 -0.2977564,-1.11509 -0.3851395,-1.684682 0.3995334,0.406204 0.8203901,0.768711 1.255787,1.090504 C 8.3162011,27.83399 8.79426,27.557282 9.2804501,27.303664 Z M 9.5421894,22.568878 C 9.1163462,22.826296 8.7012402,23.120569 8.3038291,23.454546 8.5451523,23.914205 8.817845,24.338437 9.1197817,24.720098 8.5976791,24.547071 8.0813967,24.349602 7.5717845,24.128877 7.1943762,24.509803 6.8385364,24.932518 6.5111601,25.399925 6.5022972,24.823894 6.540246,24.248891 6.6206905,23.67913 6.1228852,23.423281 5.6326982,23.144181 5.1510372,22.843106 c 0.5593422,-0.102135 1.1187651,-0.17868 1.676957,-0.230801 0.1385563,-0.55967 0.3166804,-1.110558 0.5299172,-1.648604 0.1403066,0.554841 0.3151619,1.085488 0.5223862,1.584859 0.5564968,-0.01581 1.1108681,-0.0087 1.6618918,0.02032 z m 2.6137586,-4.384312 c -0.510295,0.08845 -1.022603,0.203878 -1.53599,0.350148 0.0049,0.287067 0.01899,0.571 0.0426,0.851318 0.02227,0.240505 0.05167,0.477775 0.08798,0.711097 -0.38003,-0.404386 -0.747801,-0.82318 -1.1024655,-1.255197 -0.5152135,0.178326 -1.0326865,0.393052 -1.5455238,0.647082 0.2401931,-0.456068 0.505161,-0.899504 0.7918401,-1.327317 0.034691,-0.05177 0.069667,-0.103331 0.1049238,-0.154687 -0.3329022,-0.452049 -0.6532132,-0.915682 -0.9611998,-1.390115 0.5453282,0.156904 1.0821299,0.329482 1.6104988,0.516809 0.3607644,-0.449419 0.7432754,-0.880984 1.1444114,-1.295347 -0.08179,0.564505 -0.135635,1.122857 -0.159168,1.671927 0.515535,0.211372 1.022871,0.43642 1.522097,0.674282 z m 4.222045,-3.503233 c -0.535409,-0.03815 -1.078041,-0.06118 -1.626964,-0.0652 -0.162396,0.524529 -0.302395,1.046845 -0.417589,1.56382 -0.218809,-0.511678 -0.427443,-1.029949 -0.626146,-1.554081 -0.556848,0.01483 -1.119674,0.05103 -1.687588,0.11247 0.42842,-0.386233 0.872889,-0.756338 1.330259,-1.110862 -0.179789,-0.53358 -0.349421,-1.07268 -0.509163,-1.616516 0.471757,0.315115 0.935288,0.639008 1.390686,0.970755 0.476053,-0.329638 0.962679,-0.643807 1.456754,-0.943164 -0.222799,0.526193 -0.427089,1.055049 -0.610507,1.583439 0.441255,0.346396 0.874644,0.699796 1.300258,1.059335 z m 5.071178,-2.624136 c -0.526781,-0.131885 -1.061002,-0.251367 -1.602753,-0.357595 -0.266977,0.483572 -0.518366,0.969786 -0.753457,1.458181 -0.09998,-0.547376 -0.192327,-1.097047 -0.277151,-1.648884 -0.550214,-0.09573 -1.108178,-0.177772 -1.673986,-0.245273 0.503073,-0.279436 1.012968,-0.545962 1.529088,-0.799915 -0.06862,-0.5555027 -0.129494,-1.1131104 -0.182743,-1.6726836 0.395875,0.3999111 0.784789,0.8045726 1.166826,1.2138046 0.52632,-0.2322214 1.058204,-0.4519538 1.595066,-0.6595532 -0.310255,0.4774578 -0.606052,0.9581402 -0.886687,1.4415832 0.368541,0.419227 0.730447,0.842728 1.085797,1.270335 z m 5.518164,-1.744566 C 26.459897,10.100803 25.944807,9.8986079 25.421979,9.7068959 25.077185,10.143273 24.745422,10.583374 24.427402,11.02674 c -0.0066,-0.557095 -0.0064,-1.1154617 4.43e-4,-1.6749695 -0.530482,-0.1844515 -1.06889,-0.357981 -1.61532,-0.5197435 0.542982,-0.1907902 1.090665,-0.3699046 1.642451,-0.5376788 0.02199,-0.5607826 0.05079,-1.1226164 0.08629,-1.6853613 0.326942,0.4593685 0.647475,0.9221123 0.961685,1.3880511 0.558355,-0.1472369 1.120182,-0.2832665 1.684894,-0.4084446 -0.380328,0.4275284 -0.748739,0.8593933 -1.104529,1.2951297 0.300738,0.4734129 0.595385,0.9497718 0.88402,1.4289079 z m 5.79758,-0.9615732 C 32.283838,9.0752135 31.794901,8.8062321 31.298016,8.5449638 30.892769,8.9330854 30.497997,9.3260149 30.114412,9.7232912 30.188268,9.1675827 30.267975,8.6116264 30.353432,8.055553 29.849514,7.7983858 29.337492,7.5493692 28.817273,7.3093483 29.385106,7.19814 29.955518,7.097374 30.527911,7.0067148 30.62736,6.451602 30.732696,5.8964923 30.843808,5.3415257 c 0.261707,0.5021186 0.517559,1.0062374 0.767641,1.5121761 0.575437,-0.071488 1.152252,-0.1330504 1.72986,-0.1850424 -0.433057,0.3763369 -0.856736,0.7581217 -1.270337,1.1448895 0.236835,0.510941 0.468122,1.0235001 0.693943,1.5375089 z M 38.68187,9.0781405 C 38.489346,8.936792 38.295371,8.7965242 38.100002,8.657373 37.840726,8.4747352 37.578812,8.2935472 37.314246,8.1139668 36.865909,8.4527733 36.425493,8.7974708 35.993707,9.147598 36.13497,8.6043818 36.281197,8.0619417 36.432286,7.5204083 35.961764,7.2065282 35.482962,6.8980274 34.995785,6.5957509 c 0.577626,-0.04069 1.155708,-0.072171 1.73365,-0.094779 0.163769,-0.538493 0.332499,-1.0759286 0.506079,-1.6121667 0.200172,0.5281613 0.395042,1.0569477 0.584695,1.586179 0.09328,-8.035e-4 0.186549,-0.00138 0.279793,-0.00174 0.484073,-0.00187 0.968807,0.00229 1.453862,0.012693 -0.471084,0.3252158 -0.933647,0.6557575 -1.387796,0.9907897 0.176862,0.5325551 0.348834,1.0664068 0.515802,1.6014088 z m 5.905965,0.4046748 C 44.182547,9.1056689 43.76682,8.7333415 43.341377,8.3662865 42.857933,8.6526479 42.382634,8.9458413 41.91538,9.2450253 42.115506,8.720631 42.320677,8.197232 42.530965,7.6749774 42.097874,7.3096356 41.655462,6.9497449 41.204443,6.5957633 c 0.578599,0.023031 1.157304,0.055281 1.735551,0.097139 0.223132,-0.5181818 0.451603,-1.0350456 0.685488,-1.5504307 0.1408,0.5485933 0.27577,1.0977073 0.404786,1.6471863 0.576723,0.060695 1.152407,0.1312183 1.726473,0.2119374 -0.5071,0.2678536 -1.005802,0.5438038 -1.496213,0.8270151 0.114982,0.5512277 0.224123,1.1026779 0.327307,1.6542044 z M 50.3432,10.590246 C 49.998038,10.165608 49.639859,9.7447561 49.269385,9.3281432 48.756827,9.5496841 48.25226,9.7808285 47.755583,10.020735 48.018202,9.5257352 48.286393,9.0329788 48.560229,8.5426149 48.179452,8.1269989 47.786787,7.7157706 47.382952,7.309388 c 0.570965,0.093815 1.139994,0.1982095 1.706521,0.313573 0.286952,-0.4839248 0.57978,-0.9652354 0.878561,-1.4437713 0.06898,0.5608814 0.131138,1.1211807 0.186353,1.6807422 0.561565,0.1357298 1.120017,0.2826002 1.674779,0.4409802 -0.536601,0.1943674 -1.064926,0.399602 -1.585083,0.6148684 0.03987,0.5590554 0.07295,1.1172595 0.09912,1.6744655 z m 5.444479,1.910024 c -0.267644,-0.471407 -0.550885,-0.940062 -0.848998,-1.405511 -0.534966,0.140668 -1.062096,0.293711 -1.581491,0.458288 0.329344,-0.449035 0.664789,-0.894579 1.006406,-1.336482 -0.311088,-0.4649661 -0.636628,-0.9266079 -0.975905,-1.3844673 0.548557,0.1741178 1.093134,0.3601762 1.633167,0.558564 0.354805,-0.4330443 0.716024,-0.8621783 1.083734,-1.2872416 -0.01621,0.5624826 -0.04022,1.1232804 -0.07217,1.6822375 0.531524,0.2201134 1.057862,0.4526814 1.578437,0.6980724 -0.559587,0.104757 -1.111021,0.223152 -1.654409,0.354349 -0.04847,0.556038 -0.10469,1.11015 -0.168768,1.662191 z m 4.95036,2.799037 c -0.162648,-0.509799 -0.347671,-1.022324 -0.55259,-1.534462 -0.275339,0.0223 -0.548662,0.04857 -0.81986,0.07834 -0.270446,0.02926 -0.539,0.06216 -0.805673,0.09862 0.400304,-0.386501 0.807236,-0.768262 1.220867,-1.145134 -0.224023,-0.513392 -0.465064,-1.024523 -0.722406,-1.532935 0.470064,0.242619 0.93504,0.496477 1.394489,0.761876 0.04038,0.02332 0.08071,0.04674 0.120995,0.07026 0.42688,-0.365413 0.861446,-0.725212 1.303788,-1.078572 -0.115064,0.553962 -0.239912,1.104786 -0.374848,1.651594 0.484953,0.315987 0.960576,0.647371 1.423762,0.994879 -0.572648,-0.01045 -1.138431,0.0011 -1.696529,0.03071 -0.153982,0.539689 -0.317887,1.074904 -0.491995,1.604822 z m 3.971762,3.684524 c 0.0083,-0.515066 -0.01545,-1.041389 -0.06885,-1.575856 -0.530515,-0.09094 -1.057999,-0.154152 -1.58159,-0.19349 0.476374,-0.285815 0.960447,-0.561215 1.452307,-0.82543 -0.08322,-0.544736 -0.194436,-1.095964 -0.3312,-1.650562 0.44002,0.372965 0.865009,0.763008 1.271883,1.17096 0.504843,-0.243661 1.017726,-0.475184 1.53874,-0.693742 -0.253347,0.506285 -0.51912,1.003055 -0.797622,1.489433 0.377784,0.435023 0.735101,0.888001 1.068844,1.359661 -0.540629,-0.185073 -1.079223,-0.336205 -1.614961,-0.457231 -0.299984,0.469692 -0.612406,0.928718 -0.93755,1.376257 z m 2.209767,4.51256 c 0.231008,-0.431124 0.431473,-0.898008 0.599369,-1.393413 -0.447308,-0.276865 -0.905328,-0.515047 -1.367211,-0.717482 0.544955,-0.101879 1.095646,-0.185067 1.650993,-0.248582 0.132576,-0.527279 0.231554,-1.078908 0.294848,-1.647704 0.284757,0.502791 0.539409,1.023328 0.759273,1.557809 0.561323,-0.03136 1.12662,-0.04168 1.694727,-0.0299 -0.431895,0.372668 -0.874935,0.725256 -1.328113,1.056326 0.167857,0.552211 0.297749,1.115091 0.385129,1.684684 -0.399531,-0.406206 -0.820385,-0.768716 -1.25578,-1.090511 -0.468983,0.298456 -0.947044,0.575162 -1.433235,0.828776 z"
       inkscape:path-effect="#path-effect3"
       inkscape:original-d="M 69.707968,25.4 A 31.607965,18.907965 0 0 1 38.100002,44.307964 31.607965,18.907965 0 0 1 6.4920368,25.4 31.607965,18.907965 0 0 1 38.100002,6.4920349 31.607965,18.907965 0 0 1 69.707968,25.4 Z" />
    <path
       id="path1-8-1"
       style="display:none;fill:#ffffff;stroke:#ffffff;stroke-width:0.084"
       inkscape:label="InnerEllipsePath2"
       d="m 67.681162,27.72569 c 0.321171,-0.244187 0.633142,-0.511902 0.932698,-0.804472 -0.200584,-0.367912 -0.420423,-0.714085 -0.658526,-1.035215 0.407632,0.137517 0.811797,0.289769 1.212099,0.456208 0.286613,-0.321102 0.559099,-0.668066 0.814269,-1.042245 0.006,0.461135 -0.01642,0.921054 -0.06532,1.377817 0.393065,0.189163 0.781777,0.392625 1.165713,0.609794 -0.430891,0.09803 -0.862326,0.180295 -1.293697,0.247343 -0.08641,0.450915 -0.197924,0.896895 -0.332497,1.336073 -0.140379,-0.428427 -0.301423,-0.840256 -0.482117,-1.232212 -0.431584,0.04321 -0.862647,0.07201 -1.292626,0.08691 z m -2.392174,4.68256 c 0.398758,-0.103881 0.798389,-0.225701 1.198472,-0.367231 0.0015,-5.32e-4 0.003,-0.0011 0.0045,-0.0016 -0.01974,-0.425372 -0.06039,-0.842987 -0.120957,-1.249542 0.300473,0.312073 0.593754,0.633087 0.879446,0.962495 0.402876,-0.163802 0.805353,-0.350315 1.204244,-0.560893 -0.207184,0.409001 -0.433817,0.808261 -0.677913,1.195843 0.271783,0.343305 0.535393,0.694884 0.79041,1.054146 -0.02921,-0.0069 -0.05839,-0.01393 -0.08754,-0.02097 -0.399993,-0.09793 -0.795514,-0.204433 -1.186598,-0.319166 -0.267338,0.369041 -0.548485,0.726827 -0.842006,1.073659 0.03739,-0.445618 0.05696,-0.88668 0.05762,-1.321734 -0.411537,-0.139592 -0.818099,-0.288063 -1.219729,-0.445014 z m -4.02723,3.734385 c 0.424853,0.0062 0.853568,0.0011 1.285718,-0.01701 0.115866,-0.416452 0.217534,-0.831235 0.303896,-1.242899 0.178258,0.395081 0.350287,0.794409 0.5162,1.197645 0.436715,-0.03007 0.87677,-0.07425 1.319757,-0.134337 -0.329996,0.31071 -0.669963,0.611292 -1.018453,0.901998 0.15325,0.410061 0.300217,0.823904 0.441025,1.241164 -0.37549,-0.230199 -0.746009,-0.466311 -1.111601,-0.707909 -0.361707,0.274243 -0.730809,0.5386 -1.10587,0.793372 0.15422,-0.419888 0.296049,-0.840321 0.424398,-1.259847 -0.356454,-0.252501 -0.708129,-0.510027 -1.05507,-0.772176 z m -4.907338,2.808693 c 0.419167,0.08217 0.842867,0.156385 1.271139,0.222257 0.198999,-0.385175 0.388422,-0.771873 0.567939,-1.159881 0.08638,0.424906 0.168125,0.851265 0.245272,1.279017 0.43334,0.06032 0.871381,0.112098 1.314167,0.154952 -0.388893,0.226154 -0.781946,0.444454 -1.178883,0.655052 0.06613,0.430423 0.127533,0.862217 0.184248,1.295317 -0.317646,-0.300754 -0.631048,-0.604515 -0.940245,-0.911198 -0.403928,0.196358 -0.811394,0.385031 -1.222128,0.566182 0.224821,-0.382284 0.440584,-0.766336 0.646967,-1.151938 -0.300213,-0.313859 -0.596359,-0.630472 -0.888476,-0.94976 z m -5.355267,1.950345 c 0.405057,0.146259 0.814761,0.286163 1.229155,0.419319 0.259196,-0.349279 0.510287,-0.70071 0.752944,-1.054079 0.01526,0.433144 0.02639,0.867149 0.03344,1.301955 0.418786,0.129429 0.842368,0.251921 1.270794,0.367085 -0.419586,0.158674 -0.842113,0.310202 -1.267307,0.454736 -0.0034,0.435883 -0.01099,0.872527 -0.02273,1.309869 -0.265397,-0.347787 -0.526869,-0.697785 -0.784456,-1.049912 -0.429914,0.130884 -0.862163,0.254819 -1.296478,0.371968 0.280654,-0.344987 0.553715,-0.692386 0.818858,-1.041981 -0.248477,-0.357693 -0.493202,-0.717372 -0.734214,-1.07896 z m -5.642268,1.17485 c 0.385945,0.198905 0.776653,0.393053 1.172166,0.58205 0.306935,-0.312582 0.607237,-0.627946 0.900578,-0.945877 -0.04651,0.433364 -0.09664,0.866998 -0.150343,1.300841 0.399364,0.187044 0.803624,0.368748 1.212822,0.544723 -0.439496,0.09768 -0.880716,0.188926 -1.323384,0.273885 -0.06347,0.433437 -0.130609,0.867025 -0.201362,1.300701 -0.215835,-0.382791 -0.428068,-0.767 -0.636735,-1.152543 -0.445192,0.07202 -0.891518,0.137831 -1.338709,0.197589 0.324045,-0.306743 0.641959,-0.616544 0.953419,-0.929187 -0.199574,-0.389534 -0.395712,-0.780287 -0.588452,-1.172182 z m -5.786143,0.488505 c 0.361831,0.240108 0.728542,0.477057 1.100173,0.710452 0.342217,-0.275086 0.679273,-0.553583 1.010839,-0.835276 -0.09893,0.425567 -0.200969,0.850812 -0.306063,1.275674 0.375078,0.23316 0.755148,0.46258 1.140254,0.687868 -0.448626,0.04318 -0.897757,0.08063 -1.347118,0.112497 -0.114099,0.423084 -0.23133,0.845711 -0.351641,1.267816 -0.168964,-0.405768 -0.334646,-0.812159 -0.497083,-1.219091 -0.449763,0.01977 -0.89946,0.03407 -1.34882,0.04304 0.354991,-0.267554 0.705315,-0.538812 1.050648,-0.813557 -0.153504,-0.409382 -0.303888,-0.819218 -0.451189,-1.229427 z m -5.807095,-0.14477 c 0.334108,0.278618 0.673786,0.553992 1.018699,0.825913 0.369423,-0.237027 0.733863,-0.477657 1.093369,-0.721501 -0.143434,0.41191 -0.289813,0.823427 -0.439172,1.234483 0.34816,0.27156 0.701384,0.539594 1.059343,0.803887 -0.449504,-0.0046 -0.899438,-0.01464 -1.34954,-0.03018 -0.158135,0.408643 -0.319373,0.816743 -0.48375,1.224224 -0.125244,-0.421172 -0.247193,-0.84288 -0.36579,-1.265051 -0.449887,-0.02773 -0.899651,-0.06112 -1.349026,-0.100323 0.383063,-0.228744 0.761021,-0.461662 1.133926,-0.698368 -0.10932,-0.423999 -0.215358,-0.848383 -0.318059,-1.273083 z m -5.737852,-0.792582 c 0.295436,0.315527 0.597927,0.628411 0.907138,0.938442 0.393748,-0.19205 0.782598,-0.389302 1.166598,-0.591366 -0.189556,0.393345 -0.382364,0.785576 -0.578456,1.176625 0.313876,0.310033 0.634294,0.617156 0.960924,0.921157 -0.447323,-0.056 -0.893903,-0.118146 -1.339479,-0.186616 -0.205015,0.387146 -0.413446,0.773 -0.625327,1.157488 -0.07512,-0.433153 -0.146371,-0.866204 -0.213699,-1.29908 -0.443268,-0.08156 -0.885223,-0.169518 -1.325599,-0.264054 0.407707,-0.178859 0.810376,-0.363489 1.208058,-0.553505 -0.05724,-0.43329 -0.11064,-0.866343 -0.160158,-1.299091 z m -5.528258,-1.519862 c 0.244288,0.351879 0.497116,0.701716 0.758148,1.0493 0.413299,-0.13554 0.821784,-0.277879 1.225504,-0.426629 -0.238752,0.36285 -0.48106,0.723865 -0.726958,1.082978 0.267127,0.347802 0.542274,0.693312 0.825109,1.036318 -0.434564,-0.11418 -0.867213,-0.235287 -1.297686,-0.363499 -0.254825,0.353681 -0.513377,0.705322 -0.775691,1.054848 -0.01538,-0.437417 -0.02633,-0.874093 -0.03278,-1.309957 -0.425994,-0.142074 -0.849485,-0.291307 -1.270208,-0.447868 0.427714,-0.117388 0.850455,-0.242145 1.268274,-0.373885 0.0044,-0.43475 0.01311,-0.868641 0.02629,-1.301606 z M 17.321998,37.77152 c 0.180665,0.387675 0.371353,0.773908 0.571731,1.158489 0.428074,-0.0675 0.85142,-0.143389 1.270084,-0.227292 -0.291019,0.320425 -0.5859,0.638295 -0.884676,0.953542 0.207913,0.384868 0.425323,0.768063 0.651898,1.149372 -0.411229,-0.179177 -0.819369,-0.366061 -1.224162,-0.560832 -0.307563,0.308249 -0.619165,0.613709 -0.934841,0.916305 0.05396,-0.433963 0.11293,-0.866548 0.176966,-1.297683 -0.398065,-0.209285 -0.792437,-0.426483 -1.182851,-0.651764 0.443082,-0.04433 0.881257,-0.09763 1.314576,-0.159506 0.07548,-0.428379 0.155884,-0.855279 0.241275,-1.280631 z m -4.584334,-3.220154 c 0.08323,0.410932 0.182356,0.825176 0.296227,1.24129 0.431575,0.01932 0.85971,0.02504 1.28401,0.01894 -0.347603,0.261403 -0.699749,0.518134 -1.056479,0.769837 0.127038,0.419434 0.26809,0.839989 0.422033,1.260218 -0.374576,-0.255038 -0.742977,-0.519994 -1.103785,-0.795253 -0.365614,0.240798 -0.735967,0.476124 -1.111099,0.705595 0.140766,-0.417733 0.288205,-0.831627 0.442457,-1.241276 -0.347339,-0.292267 -0.685963,-0.594871 -1.014442,-0.908146 0.442535,0.06315 0.88208,0.109833 1.318261,0.141842 0.167576,-0.402206 0.341804,-0.800015 0.522817,-1.193047 z M 9.3627773,30.35852 c -0.067914,0.404198 -0.1158688,0.820403 -0.1429164,1.245268 0.2065728,0.07632 0.4130099,0.146695 0.6188712,0.211317 0.1925219,0.06137 0.3848589,0.118194 0.5769649,0.170667 -0.404048,0.151692 -0.8128648,0.295072 -1.2264914,0.429785 -0.00524,0.435265 0.00906,0.876652 0.04178,1.322712 C 8.9684783,33.421455 8.7162672,33.095164 8.4754086,32.759112 8.4504645,32.724308 8.4256611,32.689388 8.4010002,32.654353 7.9793829,32.772148 7.5524925,32.879632 7.1208679,32.976318 7.3811421,32.618877 7.6502634,32.26998 7.9277653,31.93029 7.6901442,31.537718 7.4703817,31.133537 7.2705707,30.719569 7.6654311,30.938122 8.0646454,31.132256 8.4650781,31.303359 8.7566829,30.97884 9.0560623,30.663687 9.3627773,30.35852 Z M 8.0087567,25.403434 c -0.2492926,0.312344 -0.4800064,0.650717 -0.6911948,1.011772 0.2910463,0.300545 0.5952848,0.575671 0.9095483,0.826745 -0.4292261,-0.02668 -0.8591028,-0.0669 -1.2891308,-0.121122 -0.1909196,0.386162 -0.3619558,0.79313 -0.5121338,1.217582 C 6.3018603,27.897495 6.2014781,27.449672 6.126855,26.996689 5.6976175,26.919171 5.2686504,26.826853 4.8404924,26.719249 c 0.3890864,-0.209761 0.7830556,-0.404573 1.1814413,-0.58377 -0.021895,-0.277383 -0.033866,-0.556021 -0.035452,-0.835513 -3.211e-4,-0.183021 0.00381,-0.365743 0.012281,-0.548051 0.119777,0.188588 0.2443922,0.371404 0.3737225,0.548051 0.1320636,0.180332 0.2683255,0.353738 0.4083814,0.520395 0.4055475,-0.154725 0.8149908,-0.293908 1.2278909,-0.416927 z M 9.261943,20.433102 c -0.3714389,0.172863 -0.7405629,0.36776 -1.1041561,0.586017 0.1071389,0.410032 0.2343612,0.805316 0.3806745,1.182549 -0.3596083,-0.23715 -0.7138862,-0.486138 -1.0624396,-0.746416 -0.3583843,0.244016 -0.7095052,0.51232 -1.0501754,0.806264 0.1107755,-0.444429 0.2454993,-0.883379 0.4021856,-1.314912 -0.3378314,-0.278657 -0.6693999,-0.5686 -0.9942847,-0.869238 0.4426449,0.0087 0.8828803,0.03085 1.3200989,0.06587 0.1881818,-0.419209 0.3968761,-0.829327 0.6240326,-1.228486 0.044433,0.4489 0.110439,0.888178 0.1970019,1.31456 0.4325736,0.05597 0.861783,0.12407 1.2870623,0.203789 z m 3.308957,-4.23317 c -0.417523,0.04374 -0.837418,0.10214 -1.259258,0.176988 -0.05536,0.424617 -0.09377,0.845045 -0.114131,1.259833 -0.235333,-0.361928 -0.46377,-0.729801 -0.685425,-1.103279 -0.425279,0.09125 -0.8524473,0.200046 -1.2810982,0.328185 0.2789689,-0.358097 0.5711314,-0.705455 0.8750402,-1.042326 -0.2084815,-0.383136 -0.4099784,-0.771805 -0.6046147,-1.165645 0.4034904,0.174079 0.8019207,0.356063 1.1953347,0.545525 0.321679,-0.320085 0.653961,-0.629599 0.995409,-0.928844 -0.102452,0.435681 -0.1898,0.869356 -0.260954,1.299574 0.384761,0.203178 0.764646,0.413308 1.139697,0.629989 z m 4.54933,-3.257486 c -0.302867,-0.03271 -0.608013,-0.06097 -0.915453,-0.08462 -0.123009,-0.0096 -0.246431,-0.01836 -0.370256,-0.02638 -0.163008,0.402585 -0.314564,0.806023 -0.453558,1.208863 -0.128348,-0.41581 -0.251133,-0.83417 -0.368469,-1.254742 -0.438358,-0.02038 -0.881506,-0.03007 -1.329036,-0.02729 0.366675,-0.266272 0.740097,-0.523027 1.11882,-0.770517 -0.105334,-0.424649 -0.205086,-0.851326 -0.299381,-1.279669 0.270155,0.212564 0.53733,0.427522 0.801546,0.644669 0.07391,0.0608 0.147613,0.121767 0.221106,0.18289 0.386921,-0.231575 0.77798,-0.455096 1.172908,-0.670728 -0.192237,0.400579 -0.374685,0.802602 -0.54702,1.205853 0.327142,0.287446 0.650061,0.578028 0.968793,0.87167 z m 5.158095,-2.371526 c -0.412738,-0.115644 -0.830065,-0.224134 -1.252023,-0.325078 -0.230655,0.367326 -0.452469,0.736491 -0.665113,1.107279 -0.04965,-0.430027 -0.09492,-0.861211 -0.135846,-1.293493 -0.426671,-0.09631 -0.858091,-0.1848834 -1.294305,-0.2653299 0.405587,-0.1916032 0.814724,-0.3757055 1.227138,-0.5524611 -0.03019,-0.4341407 -0.05591,-0.8693482 -0.07722,-1.3055576 0.291185,0.3257742 0.578286,0.6541572 0.861342,0.9850658 0.418259,-0.1627951 0.839455,-0.3182725 1.263318,-0.4665958 -0.254293,0.3637538 -0.500261,0.729597 -0.737579,1.0973136 0.27399,0.3372754 0.544072,0.676921 0.810283,1.018857 z M 27.794983,9.0194667 C 27.398857,8.8454545 26.998025,8.6769983 26.592447,8.5144914 c -0.284623,0.33103 -0.561877,0.6645274 -0.831433,1.000278 0.0168,-0.4342564 0.03747,-0.8690783 0.06196,-1.3044049 -0.409684,-0.1596737 -0.824213,-0.3132093 -1.243633,-0.460216 0.430888,-0.1273675 0.86411,-0.2479419 1.299389,-0.3618775 0.03461,-0.4356477 0.07316,-0.8717525 0.115589,-1.3082495 0.240281,0.3667922 0.476797,0.7353993 0.709588,1.1057377 0.438891,-0.1006272 0.879517,-0.1946723 1.321608,-0.2822988 -0.303905,0.3259832 -0.600948,0.6547013 -0.890805,0.9859382 0.223671,0.3751125 0.443749,0.7518279 0.660271,1.1300681 z M 33.527079,8.1989334 C 33.152566,7.9779963 32.773231,7.7610178 32.389034,7.548391 32.0629,7.8423249 31.742665,8.1393552 31.428654,8.4392678 31.502546,8.0087995 31.579799,7.5783579 31.660365,7.1480037 31.272535,6.9364644 30.879762,6.7294648 30.482002,6.527396 c 0.445408,-0.06962 0.891931,-0.1331544 1.339294,-0.1907579 0.08997,-0.4292487 0.183332,-0.8583447 0.280045,-1.2872233 0.192064,0.3957828 0.380684,0.7925864 0.565901,1.1903272 0.448815,-0.045071 0.898165,-0.084296 1.347779,-0.117837 -0.341074,0.2872672 -0.676749,0.5779147 -1.0067,0.8717265 0.176185,0.4009573 0.349092,0.8027506 0.518758,1.2053019 z M 39.333488,8.0282513 C 38.984722,7.7682968 38.631128,7.5118858 38.273043,7.259229 38.181685,7.3248142 38.09066,7.3905847 37.999965,7.4565338 37.73777,7.6481807 37.478064,7.8418538 37.220983,8.0374654 37.342618,7.618803 37.4671,7.2007594 37.594384,6.7833953 37.233273,6.5314882 36.867123,6.2825226 36.495889,6.0368896 c 0.449146,-0.01836 0.89819,-0.031343 1.346854,-0.039102 0.05199,-0.1587738 0.104397,-0.317436 0.157222,-0.4759829 0.08523,-0.2560584 0.171587,-0.5120414 0.259082,-0.7679314 0.146703,0.4122876 0.290397,0.8254298 0.431024,1.2393542 0.449201,0.00333 0.898873,0.011938 1.348752,0.025988 -0.369001,0.2493425 -0.732865,0.50206 -1.091642,0.757766 0.131795,0.4164179 0.260582,0.8335304 0.386307,1.2512698 z M 45.122465,8.490625 C 44.806132,8.193483 44.483489,7.8992841 44.154868,7.6082388 43.772685,7.8242188 43.395443,8.0446014 43.023093,8.2689971 43.189204,7.8648788 43.358414,7.4615132 43.530755,7.0589694 43.198179,6.7680852 42.8598,6.4804192 42.515948,6.1961843 c 0.449735,0.029466 0.899314,0.064688 1.348475,0.1058424 0.181209,-0.3993906 0.365677,-0.7978633 0.55344,-1.1953438 0.101383,0.4281271 0.199184,0.8564708 0.293348,1.2849589 0.44791,0.053808 0.895101,0.1136445 1.341309,0.1796785 -0.395965,0.2052497 -0.786859,0.4154723 -1.172732,0.6302813 0.08447,0.4296236 0.165378,0.8593207 0.242677,1.2890234 z M 50.77341,9.6357034 C 50.501988,9.3019307 50.22277,8.9705006 49.936089,8.6416236 49.531968,8.80686 49.132703,8.9780973 48.738247,9.1549462 48.952017,8.7753576 49.169191,8.3972427 49.389802,8.0206706 49.097742,7.6916658 48.798401,7.3652614 48.492111,7.0416703 c 0.442266,0.084238 0.883202,0.1750122 1.322549,0.2725013 0.229554,-0.3719098 0.462679,-0.7421532 0.69941,-1.1106558 0.04645,0.4362492 0.08875,0.8720773 0.126844,1.307412 0.435963,0.1109786 0.870017,0.228739 1.301899,0.3534511 -0.418291,0.1495712 -0.831575,0.3057131 -1.239906,0.4680394 0.02763,0.4349987 0.05114,0.8694497 0.0705,1.3032851 z m 5.369789,1.9169346 c -0.214036,-0.369847 -0.437353,-0.737952 -0.669617,-1.104104 -0.421284,0.102959 -0.837797,0.213518 -1.249585,0.331286 0.264501,-0.343129 0.532711,-0.684063 0.804665,-1.0227339 -0.239079,-0.3664229 -0.486915,-0.7308633 -0.743178,-1.0931081 0.424218,0.1458261 0.845935,0.2989694 1.26489,0.459609 0.280828,-0.3324612 0.565539,-0.6625075 0.854168,-0.9900645 -0.01809,0.4366544 -0.0409,0.8722497 -0.06849,1.3067139 0.413361,0.1748429 0.823624,0.3572216 1.230524,0.547306 -0.435977,0.082307 -0.867015,0.1727826 -1.293164,0.2710396 -0.03873,0.432544 -0.08212,0.863918 -0.130214,1.294056 z m 4.93093,2.772694 c -0.138155,-0.402149 -0.289405,-0.805143 -0.452607,-1.207537 -0.348119,0.02317 -0.693091,0.05292 -1.034712,0.08831 -0.08337,0.0085 -0.166573,0.01744 -0.249593,0.02666 0.170861,-0.158212 0.342878,-0.315583 0.516058,-0.472103 0.149285,-0.135103 0.299526,-0.269553 0.450726,-0.403315 -0.02905,-0.06767 -0.05842,-0.135301 -0.0881,-0.202886 -0.147337,-0.33508 -0.301722,-0.66919 -0.462966,-1.002208 0.267114,0.144653 0.532552,0.292998 0.796235,0.445091 0.126983,0.07319 0.253549,0.147365 0.37965,0.222543 0.335617,-0.280562 0.675867,-0.557536 1.020794,-0.83054 -0.09273,0.429784 -0.191382,0.857572 -0.296081,1.282958 0.379294,0.247859 0.75307,0.505321 1.119896,0.77272 -0.447657,-0.0037 -0.890943,0.0055 -1.329482,0.02603 -0.117302,0.420826 -0.240533,0.839044 -0.369822,1.254274 z m 4.076786,3.69384 c -0.01483,-0.414274 -0.04834,-0.834328 -0.0994,-1.258719 -0.420652,-0.07827 -0.839286,-0.139496 -1.255508,-0.185452 0.376448,-0.213691 0.757552,-0.420891 1.143353,-0.621242 -0.0676,-0.430148 -0.151988,-0.863918 -0.252028,-1.29986 0.339226,0.300594 0.669098,0.611916 0.988197,0.934348 0.394194,-0.186761 0.793231,-0.366165 1.197153,-0.537829 -0.196361,0.393488 -0.400155,0.781296 -0.611523,1.163016 0.301095,0.339899 0.590278,0.69087 0.866119,1.053246 -0.427835,-0.133484 -0.854063,-0.247054 -1.278307,-0.342486 -0.225264,0.371305 -0.457905,0.736425 -0.698056,1.094978 z m 2.475167,4.650743 c 0.155319,-0.371605 0.291368,-0.762229 0.407202,-1.168523 -0.358625,-0.225418 -0.723592,-0.427047 -1.091736,-0.606252 0.427149,-0.07068 0.85761,-0.129998 1.290886,-0.177498 0.09508,-0.423699 0.169513,-0.861204 0.222309,-1.309193 0.21934,0.402611 0.419828,0.816107 0.59931,1.23874 0.437144,-0.02694 0.876789,-0.04133 1.318397,-0.04267 -0.32984,0.296132 -0.666544,0.580519 -1.009647,0.852495 0.147296,0.43496 0.272074,0.877444 0.372242,1.32563 -0.333281,-0.302665 -0.677741,-0.579206 -1.030244,-0.83101 -0.353884,0.252089 -0.713604,0.491724 -1.078719,0.718285 z"
       inkscape:path-effect="#path-effect4"
       inkscape:original-d="M 69.607931,25.299966 A 31.607965,18.907965 0 0 1 37.999965,44.20793 31.607965,18.907965 0 0 1 6.392,25.299966 31.607965,18.907965 0 0 1 37.999965,6.392 31.607965,18.907965 0 0 1 69.607931,25.299966 Z" />
    <path
       id="path1-8-7"
       style="display:inline;fill:#ffffff;stroke:#ffffff;stroke-width:0.084"
       inkscape:label="InnerEllipsePath3"
       d="m 67.460053,27.514716 c 0.289563,-0.215534 0.571444,-0.450672 0.843203,-0.706448 -0.194479,-0.319565 -0.404514,-0.620059 -0.629324,-0.898972 0.380622,0.118968 0.758435,0.250467 1.133134,0.394079 0.26177,-0.279328 0.512133,-0.580102 0.748671,-0.903375 0.0067,0.398399 -0.0094,0.796486 -0.04691,1.192812 0.368693,0.163107 0.733886,0.338459 1.095257,0.525603 -0.398154,0.08629 -0.796767,0.159273 -1.195375,0.219355 -0.06839,0.392593 -0.157097,0.782035 -0.264592,1.16693 -0.146402,-0.373627 -0.309462,-0.732083 -0.48838,-1.072878 -0.399063,0.03974 -0.797767,0.06724 -1.195681,0.08289 z m -1.832566,4.018431 c 0.01905,-0.0057 0.03811,-0.01145 0.05717,-0.01725 0.334207,-0.099 0.670381,-0.21354 1.006452,-0.344511 -0.05253,-0.37887 -0.121944,-0.74885 -0.207461,-1.107429 0.2987,0.267877 0.591836,0.544039 0.879106,0.828068 0.356239,-0.157737 0.711051,-0.334504 1.062017,-0.531354 -0.160807,0.366845 -0.337983,0.727264 -0.530046,1.079808 0.276214,0.297059 0.546106,0.601949 0.809352,0.914216 -0.401706,-0.07722 -0.799548,-0.164293 -1.193062,-0.260813 -0.100515,0.159277 -0.204054,0.316549 -0.31046,0.471669 -0.12045,0.175592 -0.244232,0.348685 -0.371185,0.519312 -0.0013,-0.266862 -0.0095,-0.531483 -0.02485,-0.793538 -0.0081,-0.132423 -0.01809,-0.264093 -0.03009,-0.394915 -0.33262,-0.09677 -0.661896,-0.200093 -0.987553,-0.30973 -0.05321,-0.01769 -0.106343,-0.03554 -0.15939,-0.05353 z m -3.170127,3.384666 c 0.381965,-0.01245 0.766505,-0.03578 1.153309,-0.07138 0.06639,-0.382417 0.119553,-0.761833 0.158656,-1.137134 0.197145,0.348823 0.388744,0.702046 0.574882,1.05941 0.390368,-0.04693 0.782967,-0.106953 1.177499,-0.181444 -0.269547,0.295673 -0.548778,0.583225 -0.836611,0.862841 0.174967,0.364557 0.34431,0.733194 0.508125,1.105633 -0.359045,-0.191086 -0.713843,-0.38804 -1.064428,-0.590533 -0.301353,0.266085 -0.610437,0.524173 -0.926179,0.77449 0.102639,-0.390692 0.193428,-0.780063 0.271547,-1.166999 -0.343014,-0.213254 -0.681936,-0.431651 -1.0168,-0.654886 z m -4.00254,2.691003 c 0.383786,0.05302 0.771386,0.09889 1.162835,0.13732 0.02969,-0.07356 0.05903,-0.147159 0.08803,-0.220792 0.114194,-0.292384 0.222365,-0.585086 0.324087,-0.877538 0.114571,0.387055 0.224566,0.776013 0.33007,1.166613 0.395388,0.03369 0.795061,0.05932 1.198722,0.07551 -0.331707,0.228783 -0.668475,0.450316 -1.009225,0.664787 0.05051,0.208857 0.09973,0.418137 0.147672,0.627798 0.0425,0.185539 0.08409,0.371378 0.124762,0.557514 -0.311219,-0.261325 -0.618741,-0.525435 -0.922597,-0.792267 -0.347874,0.202064 -0.69913,0.397637 -1.053567,0.586841 0.170663,-0.364654 0.333151,-0.730396 0.48722,-1.09706 -0.296208,-0.273688 -0.588867,-0.549952 -0.878006,-0.828731 z m -4.444185,2.038928 c 0.374108,0.108036 0.752102,0.210093 1.134014,0.305871 0.20106,-0.338694 0.394618,-0.678771 0.580426,-1.020065 0.05179,0.398238 0.09987,0.797485 0.144283,1.197695 0.385925,0.09239 0.775869,0.17836 1.169868,0.257611 -0.362018,0.172524 -0.727033,0.338956 -1.09484,0.499409 0.03504,0.401829 0.0663,0.8046 0.09381,1.208264 -0.26781,-0.303353 -0.53216,-0.608909 -0.793083,-0.916606 -0.37298,0.148548 -0.748482,0.29113 -1.126303,0.427871 0.22092,-0.336508 0.434727,-0.674588 0.641177,-1.014073 -0.25309,-0.313333 -0.502865,-0.628678 -0.749353,-0.945977 z m -4.727162,1.419777 c 0.361056,0.155074 0.726067,0.305334 1.095067,0.450481 0.245811,-0.310854 0.485187,-0.623562 0.717881,-0.937957 -0.0027,0.402783 -0.0087,0.806139 -0.01805,1.21002 0.372482,0.143073 0.749038,0.280891 1.129708,0.413156 -0.383179,0.122111 -0.768481,0.238635 -1.155702,0.349689 -0.01825,0.404323 -0.03989,0.809139 -0.06489,1.214398 -0.22636,-0.336931 -0.449498,-0.675483 -0.669446,-1.015592 -0.39072,0.09958 -0.783099,0.193721 -1.176938,0.282548 0.262546,-0.307602 0.519041,-0.617258 0.769239,-0.928803 -0.21203,-0.344549 -0.420979,-0.690549 -0.626876,-1.03794 z m -4.915576,0.859529 c 0.344628,0.194131 0.693281,0.384614 1.045994,0.571148 0.281921,-0.282353 0.558475,-0.567032 0.829415,-0.85387 -0.05063,0.401635 -0.10422,0.803406 -0.160734,1.205266 0.355756,0.185735 0.715644,0.367381 1.079702,0.54464 -0.396918,0.07616 -0.795086,0.147239 -1.194299,0.213353 -0.06493,0.401202 -0.132856,0.802447 -0.203751,1.203685 -0.186869,-0.362058 -0.370755,-0.725154 -0.551688,-1.089226 -0.40109,0.05516 -0.802979,0.105411 -1.205467,0.150873 0.295539,-0.277934 0.586089,-0.558406 0.871404,-0.841248 -0.17303,-0.367339 -0.343212,-0.735566 -0.510576,-1.104621 z m -5.009425,0.358182 c 0.324824,0.225209 0.653743,0.447933 0.986793,0.667875 0.309391,-0.253193 0.614484,-0.509183 0.915028,-0.767805 -0.09202,0.394793 -0.186629,0.789285 -0.283786,1.18343 0.33575,0.220378 0.675689,0.437832 1.019854,0.652065 -0.403236,0.03467 -0.806849,0.06477 -1.210633,0.0904 -0.104992,0.392464 -0.212597,0.784522 -0.322778,1.176123 -0.149337,-0.378733 -0.295929,-0.757923 -0.439807,-1.137506 -0.404093,0.01529 -0.808124,0.0262 -1.211892,0.03284 0.3199,-0.247504 0.635873,-0.49803 0.947672,-0.75141 -0.136087,-0.381701 -0.269561,-0.763727 -0.400451,-1.146019 z m -5.022419,-0.119746 c 0.302489,0.255881 0.609602,0.509102 0.921085,0.759502 0.331332,-0.223161 0.658482,-0.449162 0.981488,-0.677708 -0.12788,0.383834 -0.258232,0.767377 -0.391081,1.150577 0.314014,0.250586 0.632272,0.498294 0.954526,0.74296 -0.403901,-0.0028 -0.808136,-0.01 -1.212512,-0.02154 -0.14051,0.381102 -0.283621,0.761798 -0.42936,1.142031 -0.114071,-0.390795 -0.225382,-0.782051 -0.33389,-1.173712 -0.404209,-0.02201 -0.808327,-0.04853 -1.212158,-0.07971 0.342588,-0.217254 0.680894,-0.437779 1.014958,-0.661283 -0.100442,-0.39338 -0.198141,-0.787102 -0.293056,-1.181115 z m -4.974415,-0.600987 c 0.272445,0.284576 0.550591,0.566944 0.834185,0.84694 0.351315,-0.189198 0.698495,-0.382403 1.041579,-0.579319 -0.16492,0.370274 -0.332539,0.739729 -0.502882,1.108312 0.287116,0.280455 0.579549,0.558495 0.877048,0.833956 -0.40254,-0.04215 -0.804573,-0.08916 -1.205907,-0.141179 -0.178106,0.365372 -0.359043,0.729789 -0.54284,1.093193 -0.07426,-0.400638 -0.145346,-0.801267 -0.21321,-1.20183 -0.399619,-0.06309 -0.798294,-0.131248 -1.195829,-0.204593 0.36288,-0.179727 0.721512,-0.363892 1.075937,-0.552201 -0.05918,-0.401227 -0.115226,-0.802337 -0.168081,-1.203279 z m -4.833379,-1.131725 c 0.23375,0.312782 0.474279,0.623807 0.721332,0.932911 0.36808,-0.147191 0.732072,-0.299554 1.092017,-0.456793 -0.204186,0.348328 -0.411295,0.695309 -0.621356,1.04089 0.251573,0.309732 0.509535,0.617514 0.773634,0.923179 -0.3939,-0.08616 -0.786455,-0.177746 -1.17747,-0.274894 -0.217827,0.341231 -0.438716,0.680957 -0.662695,1.019122 -0.02773,-0.404996 -0.05187,-0.809513 -0.07237,-1.213494 -0.387696,-0.108788 -0.773597,-0.223178 -1.157504,-0.343299 0.380049,-0.134118 0.755884,-0.27384 1.127547,-0.418871 -0.01127,-0.403508 -0.019,-0.806443 -0.02314,-1.208751 z M 19.93048,38.711408 c 0.186404,0.3405 0.380664,0.679692 0.582525,1.017414 0.381626,-0.09714 0.759214,-0.200612 1.1328,-0.310129 -0.245673,0.317998 -0.494498,0.634119 -0.7465,0.948311 0.207385,0.338419 0.422231,0.67535 0.644285,1.010629 -0.377985,-0.134864 -0.753784,-0.275715 -1.127204,-0.422689 -0.259672,0.308678 -0.522638,0.615302 -0.788924,0.919817 0.02552,-0.40387 0.05505,-0.806789 0.08864,-1.208702 -0.368442,-0.15909 -0.734237,-0.324324 -1.097185,-0.495828 0.394096,-0.08042 0.784012,-0.16762 1.16979,-0.26129 0.0433,-0.400227 0.09054,-0.799422 0.141775,-1.197533 z m -4.257287,-2.365333 c 0.126053,0.365137 0.262683,0.730932 0.409029,1.096278 0.165459,-0.01664 0.330148,-0.03467 0.494044,-0.05399 0.224084,-0.02615 0.446846,-0.05474 0.668293,-0.08574 -0.289386,0.279281 -0.58215,0.556157 -0.878317,0.830576 0.154553,0.366514 0.317637,0.732004 0.489002,1.096304 -0.34863,-0.184991 -0.694339,-0.376306 -1.036942,-0.574071 -0.0061,-0.0035 -0.01211,-0.007 -0.01816,-0.01049 -0.303619,0.267712 -0.611134,0.532679 -0.922581,0.794606 0.08559,-0.39746 0.176065,-0.79339 0.271547,-1.187479 -0.341161,-0.214762 -0.67811,-0.436862 -1.009782,-0.66655 0.404125,-0.0152 0.8043,-0.04035 1.200253,-0.07407 0.106275,-0.390551 0.217446,-0.779104 0.333612,-1.165367 z m -3.64731,-3.023585 c 0.03379,0.374145 0.0822,0.752596 0.14435,1.134244 0.385972,0.0386 0.769659,0.06439 1.150775,0.07872 -0.336636,0.220381 -0.677177,0.435905 -1.021655,0.646299 0.07453,0.386384 0.162234,0.775413 0.262276,1.165974 -0.313703,-0.251388 -0.62054,-0.510908 -0.919453,-0.778849 -0.351821,0.199649 -0.707704,0.393784 -1.067683,0.58211 0.166041,-0.371413 0.338085,-0.738584 0.516236,-1.101202 -0.285125,-0.281994 -0.561459,-0.57238 -0.827933,-0.871406 0.393882,0.07931 0.785771,0.143618 1.175393,0.194273 0.189915,-0.354781 0.38578,-0.704931 0.587694,-1.050158 z M 9.4641324,29.590852 c -0.093661,0.354279 -0.1711934,0.720873 -0.2318493,1.09724 0.3529111,0.145803 0.7067541,0.272929 1.0591249,0.382444 -0.3817779,0.121413 -0.7678426,0.234465 -1.1578125,0.338805 -0.041342,0.365536 -0.067318,0.738521 -0.077282,1.116837 -5.848e-4,0.02275 -0.00112,0.04553 -0.0016,0.06831 -0.010769,-0.01494 -0.021513,-0.02991 -0.032234,-0.04489 C 8.8003761,32.239184 8.589722,31.919441 8.3919196,31.591509 7.9961322,31.680017 7.5966108,31.759253 7.1937668,31.828843 7.4630699,31.520888 7.7391646,31.221153 8.0216925,30.930146 7.837059,30.573482 7.6677441,30.20901 7.5153103,29.838089 c 0.3463014,0.205496 0.697206,0.390529 1.0503332,0.556177 0.2936473,-0.276755 0.5932561,-0.544717 0.8984889,-0.803414 z M 8.4966206,25.402122 C 8.2604724,25.670809 8.039324,25.962018 7.8339222,26.273206 8.0969911,26.537545 8.3709513,26.780715 8.6533985,27.00378 8.2562254,26.974856 7.8586656,26.934345 7.4611005,26.881897 7.2715443,27.215323 7.0980088,27.567313 6.9412612,27.935343 6.8448096,27.549156 6.7676846,27.158362 6.7114972,26.764265 6.3149561,26.691904 5.9187403,26.606956 5.5232609,26.509049 5.8901631,26.331754 6.2609249,26.167374 6.6351877,26.016415 6.6225993,25.8114 6.6158508,25.605866 6.6151558,25.4 6.6142599,25.206319 6.6187268,25.012848 6.628382,24.819745 6.7648314,25.02079 6.9071365,25.214393 7.0551194,25.4 c 0.09542,0.120582 0.1928695,0.237689 0.292203,0.351385 0.3801184,-0.129898 0.7633302,-0.246477 1.1492982,-0.349263 z m 0.9656389,-4.18891 c -0.3306908,0.160222 -0.6587042,0.338899 -0.9815997,0.537064 0.1215188,0.358537 0.259257,0.703094 0.4124343,1.03116 C 8.5494583,22.57934 8.2100093,22.366837 7.8750498,22.144344 7.5565664,22.363849 7.2444996,22.603591 6.9412685,22.864625 7.025342,22.475559 7.1290059,22.089862 7.2507794,21.708983 6.9244535,21.47018 6.6030386,21.221341 6.2868578,20.962917 c 0.4082371,1.52e-4 0.8147718,0.01189 1.2191403,0.0348 0.1483817,-0.37237 0.3137884,-0.738609 0.49469,-1.097322 0.071459,0.396915 0.1602978,0.783737 0.265716,1.157978 0.4012034,0.04119 0.7999659,0.09293 1.1958554,0.15484 z m 2.5604155,-3.732307 c -0.372184,0.05573 -0.745887,0.124849 -1.120797,0.208731 -0.01239,0.384664 -0.0096,0.764465 0.0093,1.13829 -0.245906,-0.31653 -0.485781,-0.638709 -0.71971,-0.966276 -0.3777976,0.09854 -0.7567985,0.212694 -1.1367055,0.343829 0.223656,-0.332157 0.4593054,-0.655755 0.7058672,-0.970983 -0.2224669,-0.336896 -0.438801,-0.679162 -0.6490959,-1.02652 0.3811846,0.140876 0.758051,0.289082 1.1306332,0.44429 0.263408,-0.301579 0.536846,-0.594672 0.819241,-0.879503 -0.05496,0.398477 -0.09612,0.793749 -0.122647,1.184702 0.365473,0.168023 0.726775,0.342605 1.083941,0.52344 z m 3.64648,-3.024281 c -0.384951,-0.02338 -0.773533,-0.03837 -1.165436,-0.04361 -0.111155,0.376101 -0.211065,0.751063 -0.298892,1.123772 -0.153367,-0.372332 -0.301672,-0.747815 -0.445001,-1.12619 -0.396232,0.0028 -0.795722,0.01628 -1.198172,0.04166 0.305565,-0.261216 0.618502,-0.514745 0.937731,-0.760775 -0.132551,-0.383492 -0.259989,-0.769775 -0.382408,-1.15857 0.335783,0.231261 0.667392,0.466926 0.99486,0.706668 0.329447,-0.232733 0.664327,-0.457959 1.003567,-0.675904 -0.141133,0.378731 -0.272374,0.758023 -0.392901,1.136763 0.319553,0.248436 0.635092,0.5006 0.946652,0.756185 z m 4.256854,-2.365987 c -0.379369,-0.08152 -0.762588,-0.156487 -1.149691,-0.224588 -0.175444,0.352367 -0.342854,0.705882 -0.501978,1.060377 -0.08149,-0.39383 -0.15908,-0.788888 -0.23281,-1.185127 -0.391417,-0.06404 -0.786823,-0.12108 -1.186258,-0.170817 0.348655,-0.199404 0.700744,-0.392462 1.056062,-0.579288 -0.06417,-0.398476 -0.124356,-0.798119 -0.1806,-1.1988793 0.28927,0.2833953 0.574961,0.5692853 0.857105,0.8576053 0.361348,-0.174737 0.725648,-0.343246 1.092699,-0.505649 -0.196871,0.350676 -0.386098,0.702683 -0.567436,1.055852 0.274391,0.294564 0.545351,0.591422 0.812907,0.890514 z m 4.597495,-1.721987 c -0.368005,-0.132553 -0.739929,-0.259709 -1.115807,-0.3811694 -0.224516,0.3248564 -0.442063,0.6513314 -0.652394,0.9792584 -0.02373,-0.401222 -0.04394,-0.803236 -0.06066,-1.205993 -0.379613,-0.1187341 -0.763274,-0.2316305 -1.151018,-0.3383916 0.373526,-0.1467596 0.749613,-0.2876797 1.128054,-0.4228752 -0.0076,-0.4037783 -0.01155,-0.808274 -0.01198,-1.2134375 0.246839,0.3211986 0.490339,0.6443094 0.730529,0.9692685 0.382771,-0.1234945 0.767632,-0.2412881 1.154384,-0.3535029 -0.242812,0.3221502 -0.479043,0.6461135 -0.708446,0.971723 0.232303,0.3299949 0.461407,0.6617207 0.687343,0.9951197 z M 29.356693,9.2363613 C 29.00343,9.0607608 28.646176,8.8893918 28.284897,8.7225536 28.019951,9.0192394 27.760906,9.3180148 27.508009,9.6187142 27.535488,9.2157936 27.566115,8.8125187 27.599853,8.408936 27.235324,8.2435297 26.866692,8.0827951 26.493918,7.9270301 c 0.390976,-0.098577 0.783639,-0.1918213 1.177783,-0.2798475 0.04241,-0.4034645 0.08803,-0.807197 0.1368,-1.2111477 0.206369,0.3505509 0.409637,0.7024317 0.609832,1.0555785 0.396826,-0.076801 0.794881,-0.1484285 1.193965,-0.215004 -0.280121,0.2928628 -0.554723,0.5880221 -0.823558,0.8853108 0.192272,0.3569978 0.38158,0.7151647 0.567953,1.0744411 z M 34.331014,8.63487 C 33.995867,8.4242024 33.656659,8.216601 33.313355,8.0123653 33.016619,8.2802209 32.724716,8.5506376 32.437894,8.8234497 32.510038,8.4245244 32.584955,8.0256813 32.662609,7.6269669 32.316445,7.4229083 31.966122,7.2223556 31.6116,7.0256065 c 0.401005,-0.054856 0.802823,-0.1048863 1.205249,-0.1502048 0.08579,-0.3975346 0.17438,-0.7948878 0.265745,-1.1920097 0.167858,0.3714522 0.332852,0.7436519 0.495012,1.1165353 0.403513,-0.034657 0.807394,-0.064667 1.211443,-0.090152 -0.308799,0.2628141 -0.613139,0.5284079 -0.912775,0.7966144 0.1543,0.3755733 0.305871,0.7517533 0.45474,1.1284803 z M 39.353422,8.5146392 C 39.039156,8.2732897 38.720804,8.0348245 38.398619,7.7994065 38.298671,7.8734391 38.199132,7.9476917 38.100002,8.0221553 37.881621,8.1873925 37.665058,8.3540397 37.450393,8.5220431 37.560656,8.1328067 37.673318,7.744089 37.788341,7.3559365 37.463825,7.1212455 37.135092,6.8888946 36.802104,6.6591814 c 0.403613,-0.015597 0.807165,-0.026875 1.210452,-0.033947 0.02901,-0.091385 0.05816,-0.1827355 0.08745,-0.2740495 0.0944,-0.2944193 0.19026,-0.588754 0.287579,-0.8829786 0.131454,0.3838168 0.260358,0.7683293 0.386668,1.1534821 0.403754,0.00319 0.807845,0.010629 1.212074,0.022448 -0.331271,0.232985 -0.658243,0.4686593 -0.980956,0.7067286 0.118574,0.3873711 0.234606,0.7753132 0.348055,1.1637743 z m 5.009472,0.3577082 C 44.074346,8.6020578 43.780635,8.3342018 43.482014,8.0689426 43.140289,8.2761278 42.802722,8.4867366 42.469275,8.7004727 42.615397,8.3223708 42.764104,7.9448236 42.915422,7.5678839 42.613777,7.30229 42.307351,7.0393418 41.996394,6.7792039 c 0.40413,0.021903 0.808174,0.048393 1.211938,0.079603 0.159042,-0.3742886 0.320801,-0.7478963 0.485303,-1.1207662 0.09501,0.3964024 0.187045,0.7930302 0.276071,1.189828 0.40283,0.041973 0.805143,0.088738 1.206742,0.1404227 -0.353124,0.1995005 -0.701983,0.4028562 -1.046618,0.6097727 0.08065,0.3979989 0.158346,0.7961107 0.233064,1.1942836 z m 4.915717,0.8589951 C 49.024432,9.432602 48.764013,9.1358445 48.497608,8.8412331 48.137509,9.0104332 47.78152,9.1842228 47.429604,9.3623058 47.613879,9.0019563 47.800965,8.6426902 47.990889,8.2845603 47.720464,7.989393 47.444186,7.6964082 47.162306,7.4057705 c 0.39913,0.063567 0.797334,0.1322816 1.194418,0.2062773 0.1977,-0.3543526 0.398348,-0.7074754 0.60197,-1.0593116 0.05184,0.4035031 0.100288,0.8067612 0.14531,1.2097189 0.394573,0.085364 0.787778,0.1760618 1.179415,0.2722189 -0.371855,0.1579326 -0.739479,0.3208864 -1.102913,0.4885669 0.03606,0.4030628 0.06878,0.8057807 0.0981,1.2081016 z m 4.727399,1.4191845 c -0.211159,-0.326702 -0.429634,-0.651872 -0.655173,-0.975347 -0.375255,0.12317 -0.746447,0.252094 -1.113615,0.386479 0.224651,-0.334212 0.452341,-0.6668113 0.683094,-0.9977457 -0.230559,-0.3241496 -0.468043,-0.6465798 -0.712201,-0.9671261 0.386852,0.1099248 0.771939,0.2255577 1.155066,0.3470323 0.238484,-0.3260056 0.480146,-0.6502324 0.725013,-0.9726236 0.0019,0.4051187 8.9e-5,0.8095222 -0.0056,1.213155 0.378985,0.1333631 0.755749,0.2725996 1.130094,0.4178364 -0.387463,0.1082815 -0.770729,0.22275 -1.14984,0.3431112 -0.01518,0.4025635 -0.03411,0.8043235 -0.05682,1.2052285 z m 4.444517,2.038276 c -0.159488,-0.354175 -0.327368,-0.707268 -0.503389,-1.059116 -0.387193,0.06909 -0.770371,0.145107 -1.149572,0.227746 0.267252,-0.299688 0.537768,-0.597235 0.811575,-0.892588 -0.18205,-0.35254 -0.372095,-0.703825 -0.569885,-1.053689 0.367298,0.160976 0.731991,0.328221 1.093885,0.501868 0.281391,-0.289247 0.566192,-0.576167 0.85443,-0.860702 -0.05466,0.401249 -0.113552,0.801313 -0.176704,1.200136 0.356066,0.185969 0.709058,0.378352 1.058777,0.577275 -0.399948,0.05055 -0.795733,0.108447 -1.187397,0.173406 -0.07308,0.396499 -0.150305,0.791738 -0.23172,1.185664 z m 4.003146,2.690349 c -0.08458,-0.371584 -0.181749,-0.74565 -0.290652,-1.121091 -0.391735,0.0041 -0.780178,0.01858 -1.165042,0.04196 0.31282,-0.254796 0.629457,-0.506071 0.949943,-0.753554 -0.118873,-0.378367 -0.248933,-0.757532 -0.389334,-1.136383 0.338791,0.218152 0.672994,0.443856 1.001552,0.6774 0.328181,-0.23871 0.660343,-0.473289 0.996517,-0.703444 -0.123186,0.388748 -0.251819,0.77461 -0.386008,1.157276 0.318059,0.247269 0.629617,0.502402 0.933606,0.765649 -0.402282,-0.02822 -0.801593,-0.04397 -1.197659,-0.0486 -0.145519,0.377009 -0.29646,0.750702 -0.452923,1.12079 z m 3.171212,3.383913 c 0.0263,-0.372821 0.03597,-0.75177 0.02988,-1.135739 -0.373561,-0.08894 -0.745845,-0.162538 -1.116564,-0.222155 0.359647,-0.175897 0.723287,-0.345601 1.090953,-0.508839 -0.02092,-0.390405 -0.05701,-0.785301 -0.107428,-1.183577 0.278808,0.28696 0.548473,0.582633 0.807935,0.887308 0.374537,-0.150532 0.75322,-0.294164 1.136081,-0.430603 -0.214155,0.345453 -0.434864,0.685309 -0.662235,1.019255 0.136023,0.179004 0.268554,0.360817 0.397406,0.545483 0.100645,0.144244 0.198815,0.290408 0.294379,0.438376 -0.207497,-0.07627 -0.414885,-0.146769 -0.621772,-0.211679 -0.170481,-0.05381 -0.340725,-0.104204 -0.510706,-0.151299 -0.239467,0.323869 -0.485411,0.641789 -0.737931,0.953469 z m 1.834166,4.017981 c 0.162737,-0.320761 0.309909,-0.658941 0.440769,-1.011996 -0.317476,-0.20597 -0.640864,-0.392016 -0.967759,-0.559204 0.397632,-0.05119 0.7976,-0.09241 1.199524,-0.123305 0.114633,-0.369768 0.21262,-0.753003 0.293196,-1.147183 0.17242,0.361535 0.328922,0.730525 0.467895,1.105666 0.404378,-0.01293 0.81046,-0.01492 1.217836,-0.0056 -0.321804,0.251417 -0.648933,0.492267 -0.981029,0.722042 0.111668,0.383584 0.204678,0.772049 0.277467,1.164036 -0.295426,-0.270415 -0.600417,-0.519063 -0.912593,-0.747025 -0.340687,0.212074 -0.685901,0.413093 -1.035306,0.602583 z"
       inkscape:path-effect="#path-effect3-5"
       inkscape:original-d="M 69.707968,25.4 A 31.607965,18.907965 0 0 1 38.100002,44.307964 31.607965,18.907965 0 0 1 6.4920368,25.4 31.607965,18.907965 0 0 1 38.100002,6.4920349 31.607965,18.907965 0 0 1 69.707968,25.4 Z"
       transform="matrix(1.0083119,0,0,0.99997445,-0.30210127,0.0134988)" />
    <path
       sodipodi:type="star"
       style="display:none;fill:#ffffff;fill-opacity:1;stroke:none;stroke-width:0.264583"
       id="path2"
       inkscape:flatsided="false"
       sodipodi:sides="5"
       sodipodi:cx="25.698277"
       sodipodi:cy="14.982759"
       sodipodi:r1="11.523738"
       sodipodi:r2="4.4624071"
       sodipodi:arg1="0.93263779"
       sodipodi:arg2="1.5609563"
       inkscape:rounded="0"
       inkscape:randomized="0"
       d="m 32.563168,24.238558 -6.820982,-4.793607 -6.725329,4.926907 2.451192,-7.968445 -6.764008,-4.87367 8.335902,-0.131163 2.544942,-7.9390005 2.700678,7.8873825 8.336869,-0.0329 -6.666791,5.005833 z"
       inkscape:transform-center-x="0.094559468"
       inkscape:transform-center-y="-0.12755693"
       transform="matrix(0.20154299,0,0,0.20154299,-0.66430269,0.81778187)"
       inkscape:label="Star" />
    <path
       sodipodi:type="star"
       style="display:none;fill:#ffffff;fill-opacity:1;stroke:none;stroke-width:0.264583"
       id="path2-5"
       inkscape:flatsided="false"
       sodipodi:sides="5"
       sodipodi:cx="25.698277"
       sodipodi:cy="14.982759"
       sodipodi:r1="11.523738"
       sodipodi:r2="4.4624071"
       sodipodi:arg1="0.93263779"
       sodipodi:arg2="1.5609563"
       inkscape:rounded="0"
       inkscape:randomized="0"
       d="m 32.563168,24.238558 -6.820982,-4.793607 -6.725329,4.926907 2.451192,-7.968445 -6.764008,-4.87367 8.335902,-0.131163 2.544942,-7.9390005 2.700678,7.8873825 8.336869,-0.0329 -6.666791,5.005833 z"
       inkscape:transform-center-x="0.094559468"
       inkscape:transform-center-y="-0.12755693"
       transform="matrix(0.20154299,0,0,0.20154299,66.461815,0.90839396)"
       inkscape:label="StarPath1" />
    <path
       sodipodi:type="star"
       style="display:none;fill:#ffffff;fill-opacity:1;stroke:none;stroke-width:0.264583"
       id="path2-5-6"
       inkscape:flatsided="false"
       sodipodi:sides="5"
       sodipodi:cx="25.698277"
       sodipodi:cy="14.982759"
       sodipodi:r1="11.523738"
       sodipodi:r2="4.4624071"
       sodipodi:arg1="0.93263779"
       sodipodi:arg2="1.5609563"
       inkscape:rounded="0"
       inkscape:randomized="0"
       d="m 32.563168,24.238558 -6.820982,-4.793607 -6.725329,4.926907 2.451192,-7.968445 -6.764008,-4.87367 8.335902,-0.131163 2.544942,-7.9390005 2.700678,7.8873825 8.336869,-0.0329 -6.666791,5.005833 z"
       inkscape:transform-center-x="0.073498315"
       inkscape:transform-center-y="-0.099145807"
       transform="matrix(0.15665332,0,0,0.15665332,0.09273581,43.702101)"
       inkscape:label="StarPath2" />
    <path
       sodipodi:type="star"
       style="display:none;fill:#ffffff;fill-opacity:1;stroke:none;stroke-width:0.264583"
       id="path2-5-6-7"
       inkscape:flatsided="false"
       sodipodi:sides="5"
       sodipodi:cx="25.698277"
       sodipodi:cy="14.982759"
       sodipodi:r1="11.523738"
       sodipodi:r2="4.4624071"
       sodipodi:arg1="0.93263779"
       sodipodi:arg2="1.5609563"
       inkscape:rounded="0"
       inkscape:randomized="0"
       inkscape:transform-center-x="0.068382366"
       inkscape:transform-center-y="-0.092246378"
       transform="matrix(0.14575169,0,0,0.14575169,66.891173,43.815464)"
       inkscape:label="StarPath3"
       d="m 32.563168,24.238558 -6.820982,-4.793607 -6.725329,4.926907 2.451192,-7.968445 -6.764008,-4.87367 8.335902,-0.131163 2.544942,-7.9390005 2.700678,7.8873825 8.336869,-0.0329 -6.666791,5.005833 z" />
    <text
       xml:space="preserve"
       style="font-style:normal;font-variant:normal;font-weight:normal;font-stretch:normal;font-size:7.05556px;font-family:'Copperplate Gothic Bold';-inkscape-font-specification:'Copperplate Gothic Bold, ';text-align:center;writing-mode:lr-tb;direction:ltr;text-anchor:middle;display:none;fill:#ffffff;fill-opacity:1;stroke:#ffffff;stroke-width:0.0839999;stroke-dasharray:none"
       x="37.64909"
       y="18.23848"
       id="text4"
       inkscape:label="Text1"><tspan
         sodipodi:role="line"
         style="font-style:normal;font-variant:normal;font-weight:normal;font-stretch:normal;font-size:7.05556px;font-family:'Copperplate Gothic Bold';-inkscape-font-specification:'Copperplate Gothic Bold, ';text-align:center;text-anchor:middle;stroke-width:0.084"
         x="37.64909"
         y="18.23848"
         id="tspan5">Proud</tspan><tspan
         sodipodi:role="line"
         style="font-style:normal;font-variant:normal;font-weight:normal;font-stretch:normal;font-size:7.05556px;font-family:'Copperplate Gothic Bold';-inkscape-font-specification:'Copperplate Gothic Bold, ';text-align:center;text-anchor:middle;stroke-width:0.084"
         x="37.64909"
         y="27.05793"
         id="tspan7">Civil</tspan><tspan
         sodipodi:role="line"
         style="font-style:normal;font-variant:normal;font-weight:normal;font-stretch:normal;font-size:7.05556px;font-family:'Copperplate Gothic Bold';-inkscape-font-specification:'Copperplate Gothic Bold, ';text-align:center;text-anchor:middle;stroke-width:0.084"
         x="37.64909"
         y="35.87738"
         id="tspan6">Servant</tspan></text>
    <text
       xml:space="preserve"
       style="font-style:normal;font-variant:normal;font-weight:normal;font-stretch:normal;font-size:8.46667px;font-family:Georgia;-inkscape-font-specification:Georgia;text-align:center;writing-mode:lr-tb;direction:ltr;text-anchor:middle;display:none;fill:#ffffff;fill-opacity:1;stroke:#ffffff;stroke-width:0.0839999;stroke-dasharray:none"
       x="38.181931"
       y="21.125225"
       id="text4-3"
       inkscape:label="Text2"><tspan
         sodipodi:role="line"
         style="font-style:normal;font-variant:normal;font-weight:normal;font-stretch:normal;font-size:8.46667px;font-family:Georgia;-inkscape-font-specification:Georgia;text-align:center;text-anchor:middle;stroke-width:0.084"
         x="38.181931"
         y="21.125225"
         id="tspan5-2">Proud</tspan><tspan
         sodipodi:role="line"
         style="font-style:normal;font-variant:normal;font-weight:normal;font-stretch:normal;font-size:8.46667px;font-family:Georgia;-inkscape-font-specification:Georgia;text-align:center;text-anchor:middle;stroke-width:0.084"
         x="38.181931"
         y="31.708563"
         id="tspan6-1">Civil Servant</tspan></text>
    <text
       xml:space="preserve"
       style="font-style:normal;font-variant:normal;font-weight:600;font-stretch:normal;font-size:9.17222228px;font-family:'Cormorant Garamond';-inkscape-font-specification:'Cormorant Garamond Semi-Bold';text-align:center;writing-mode:lr-tb;direction:ltr;text-anchor:middle;display:inline;fill:#ffffff;fill-opacity:1;stroke:#ffffff;stroke-width:0.0839999;stroke-dasharray:none"
       x="37.98436"
       y="20.987659"
       id="text4-8"
       inkscape:label="Text3"><tspan
         sodipodi:role="line"
         style="font-style:normal;font-variant:normal;font-weight:600;font-stretch:normal;font-family:'Cormorant Garamond';-inkscape-font-specification:'Cormorant Garamond Semi-Bold';text-align:center;text-anchor:middle;stroke-width:0.084;font-size:9.17222228px"
         x="37.98436"
         y="20.987659"
         id="tspan7-2">Proud</tspan><tspan
         sodipodi:role="line"
         style="font-style:normal;font-variant:normal;font-weight:600;font-stretch:normal;font-family:'Cormorant Garamond';-inkscape-font-specification:'Cormorant Garamond Semi-Bold';text-align:center;text-anchor:middle;stroke-width:0.084;font-size:9.17222228px"
         x="37.98436"
         y="32.452934"
         id="tspan6-4">Civil Servant</tspan></text>
  </g>
</svg>
